# xmcd
#
# Track frame offsets: 
#        150
#        11966
#        31636
#        46775
#        65087
#        82716
#        97091
#        118735
#        138901
#        158155
#        177965
#        193811
#        210034
#        223542
#        240710
#        260118
#        282452
#
# Disc length: 3954 seconds
#
# Revision: 0
# Processed by: cddbd v1.5.2PL0 Copyright (c) Steve Scherf et al.
# Submitted via: ExactAudioCopyFreeDBPlugin 1.0
#
DISCID=ef0f7011
DTITLE=Elmore D - L'intégrale cazî complète CD3 Tot k'mahî (studio)
DYEAR=2005
DGENRE=Blues
TTITLE0=Tot k'mahî
TTITLE1=Guitare sweng
TTITLE2=Louke à ç't-eûre
TTITLE3=Pus vîs pus sot
TTITLE4=Rita
TTITLE5=Prinds ç' martê
TTITLE6=Grivèl'rèye
TTITLE7=lès bièsses n° 19
TTITLE8=Ci n' sèrè may pus come divins l' telps
TTITLE9=Mi Toshiba Satellite
TTITLE10=Ti t' fès dès-îdèyes
TTITLE11=Hèsta
TTITLE12=San Francisco bay blues
TTITLE13=Sôlèye di tchin
TTITLE14=Gros Louwis
TTITLE15=Djoyeûs pèheû
TTITLE16=Gros Louwis (remix)
EXTD=
EXTT0=
EXTT1=
EXTT2=
EXTT3=
EXTT4=
EXTT5=
EXTT6=
EXTT7=
EXTT8=
EXTT9=
EXTT10=
EXTT11=
EXTT12=
EXTT13=
EXTT14=
EXTT15=
EXTT16=
PLAYORDER=
